#!OML:ASF H:\ManfredETheater\Project 1\Capture day 1\Session 1\subject.ASF
:FULLY-SPECIFIED
:DEGREES
187
root 0.390226 16.2811 -34.0386 -153.721 -7.79964 174.677
lowerback 18.0712 -1.78785 -0.991415
upperback -1.53186 -2.4392 1.88827
thorax -11.7577 -1.0282 3.33564
lowerneck -18.5944 -2.25783 -5.30281
upperneck -5.40162 -3.14916 2.6641
head 1.55152 -1.92462 1.5624
rclavicle 2.34566e-014 -1.19271e-014
rhumerus -58.8448 -2.91455 -81.1311
rradius 72.7974
rwrist -16.903
rhand -33.5196 0.774008
rfingers 7.12502
rthumb -6.71584 -29.0995
lclavicle 2.34566e-014 -1.19271e-014
lhumerus -36.4777 -9.47193 95.2299
lradius 82.5678
lwrist 15.6518
lhand -25.0678 -15.1757
lfingers 7.12502
lthumb 1.4461 14.7991
rfemur -62.8513 -1.1907 20.3307
rtibia 65.5556
rfoot -23.7717 -12.3137
rtoes -24.7674
lfemur -10.3346 -4.48841 -19.348
ltibia 60.4938
lfoot 18.1761 -6.72952
ltoes 8.70459
188
root 0.367798 16.2889 -34.4568 -153.412 -7.39878 175.455
lowerback 18.2283 -1.74362 -0.401764
upperback -1.56854 -2.23647 2.05703
thorax -11.9185 -0.963618 3.14145
lowerneck -18.5551 -2.16396 -5.23778
upperneck -5.78657 -3.09234 2.77667
head 1.41219 -1.91458 1.59294
rclavicle -1.90833e-014 3.10104e-014
rhumerus -55.465 -3.42507 -81.5812
rradius 70.6749
rwrist -17.7133
rhand -33.8147 0.272655
rfingers 7.12502
rthumb -7.00072 -29.5916
lclavicle -1.90833e-014 3.10104e-014
lhumerus -36.3319 -6.41881 95.1152
lradius 77.8987
lwrist 16.7042
lhand -26.0386 -15.6741
lfingers 7.12502
lthumb 0.508496 14.305
rfemur -61.4647 -0.382195 21.1325
rtibia 65.4093
rfoot -24.9615 -13.0187
rtoes -24.9969
lfemur -13.5289 -3.66181 -18.5664
ltibia 64.6622
lfoot 16.4872 -7.6998
ltoes 8.39372
189
root 0.346916 16.2939 -34.8749 -153.127 -7.05646 176.173
lowerback 18.381 -1.69384 0.164038
upperback -1.61478 -2.03066 2.21674
thorax -12.0851 -0.897754 2.94935
lowerneck -18.5352 -2.0935 -5.19974
upperneck -6.08931 -3.05127 2.79877
head 1.30333 -1.91183 1.59694
rclavicle 1.51076e-014 -3.18055e-015
rhumerus -52.313 -3.75179 -82.2321
rradius 69.331
rwrist -18.0969
rhand -33.9916 0.218158
rfingers 7.12502
rthumb -7.17145 -29.6403
lclavicle 1.51076e-014 -3.18055e-015
lhumerus -36.4951 -3.93805 94.8761
lradius 73.8914
lwrist 18.0976
lhand -26.6374 -16.3117
lfingers 7.12502
lthumb -0.0698964 13.668
rfemur -59.9754 0.280026 21.9245
rtibia 65.198
rfoot -26.2012 -13.7037
rtoes -25.3066
lfemur -16.8273 -2.84735 -17.8083
ltibia 68.7873
lfoot 14.4816 -8.4683
ltoes 7.47027
190
root 0.326194 16.297 -35.2931 -152.876 -6.72839 176.835
lowerback 18.5435 -1.63067 0.694452
upperback -1.66895 -1.81406 2.36388
thorax -12.2637 -0.82627 2.76034
lowerneck -18.5471 -2.02536 -5.16538
upperneck -6.30779 -3.00307 2.71222
head 1.22556 -1.90543 1.56582
rclavicle 1.90833e-014 -3.4191e-014
rhumerus -49.4988 -3.83355 -83.1064
rradius 68.966
rwrist -18.075
rhand -33.9199 0.63851
rfingers 7.12502
rthumb -7.10222 -29.2223
lclavicle 1.90833e-014 -3.4191e-014
lhumerus -37.0994 -2.22693 94.6126
lradius 70.8103
lwrist 19.549
lhand -26.8519 -17.0181
lfingers 7.12502
lthumb -0.277071 12.9615
rfemur -58.3596 0.810549 22.6908
rtibia 64.8621
rfoot -27.4431 -14.3389
rtoes -25.7532
lfemur -20.1886 -2.01545 -17.112
ltibia 72.7726
lfoot 12.269 -8.98618
ltoes 6.09483
